<svg xmlns="http://www.w3.org/2000/svg" fill="none" viewBox="0 0 121 49" height="49" width="121">
<path fill="#8A99A0" d="M48.0272 35.4417C48.0272 34.4399 48.0046 33.7495 47.9482 32.9666C48.1581 32.9846 49.9157 32.9666 50.4617 32.9666C51.617 32.9666 52.4021 33.3795 52.4021 34.3519C52.4021 35.3266 51.4319 35.7395 50.8385 35.8275V35.8433C51.4229 35.8727 52.5623 36.2653 52.5623 37.3438C52.5623 38.6208 51.4703 39.133 50.3286 39.133C49.8209 39.133 48.1581 39.1149 47.9482 39.133C48.0046 38.3433 48.0272 37.6574 48.0272 36.6601V35.4417ZM49.9541 33.4765C49.6765 33.4765 49.6089 33.4855 49.4825 33.5036C49.4645 33.9435 49.4442 34.4399 49.4442 34.7445C49.4442 35.0672 49.4577 35.3537 49.4577 35.6561H49.8864C50.0345 35.6601 50.1818 35.6333 50.3189 35.5773C50.4561 35.5212 50.5801 35.4373 50.683 35.3308C50.7859 35.2242 50.8656 35.0974 50.9168 34.9584C50.9681 34.8194 50.9898 34.6713 50.9807 34.5234C50.9807 33.948 50.7099 33.4765 49.9541 33.4765ZM49.8661 36.166C49.6946 36.166 49.5705 36.1727 49.4577 36.1727C49.4577 36.4232 49.4442 36.6759 49.4442 37.0414C49.4442 37.6032 49.4667 38.2936 49.4667 38.6073C49.6382 38.6118 49.7826 38.6208 49.9924 38.6208C50.5588 38.6208 51.0484 38.1899 51.0484 37.4092C51.0484 36.5789 50.6355 36.1682 49.8661 36.1682M62.0703 35.4417C62.0703 34.4399 62.0523 33.7495 61.9959 32.9666C62.5599 32.9756 65.4502 32.9891 65.7074 32.9666C65.6849 33.0726 65.6849 33.6073 65.7074 33.745C64.9787 33.6999 63.767 33.6999 63.4827 33.6999C63.4354 34.3542 63.4895 34.934 63.4895 35.5839C64.3243 35.5658 64.9403 35.55 65.6691 35.5139C65.6365 35.7686 65.6365 36.0264 65.6691 36.281C64.9438 36.2281 64.2168 36.2018 63.4895 36.2021C63.4895 36.5789 63.4827 36.9624 63.4827 37.3438C63.4827 37.7228 63.4827 38.0342 63.5053 38.3884C64.2251 38.3884 64.9696 38.4268 65.7074 38.3433C65.6849 38.4719 65.6849 39.0292 65.7074 39.133C64.4703 39.1206 63.233 39.1206 61.9959 39.133C62.0523 38.3433 62.0703 37.6574 62.0703 36.6601V35.4417ZM80.5154 39.133C79.962 39.1149 79.4082 39.1149 78.8548 39.133C78.6519 38.5166 78.4306 37.9064 78.1915 37.3031C77.4492 37.2941 76.7068 37.2941 75.9645 37.3031C75.705 37.9078 75.4907 38.517 75.3124 39.1307C75.0036 39.1127 74.694 39.1127 74.3851 39.1307C74.8522 38.1425 76.2917 34.9589 77.1152 32.9237C77.2393 32.9395 77.7222 32.9395 77.8462 32.9237C78.6608 34.9589 79.7867 37.6777 80.5154 39.133ZM77.9726 36.7729C77.7056 36.0576 77.4212 35.349 77.1197 34.6475C76.7926 35.3424 76.497 36.0464 76.2172 36.7729H77.9726ZM88.1191 36.8993C88.1191 35.9336 88.1417 35.453 88.1417 34.8054C88.1417 33.8601 88.1191 33.2621 88.1011 32.9666C88.3605 32.9891 88.629 33.0117 88.8862 33.0117C89.1457 33.0117 89.4165 32.9914 89.6714 32.9666C89.5518 34.1285 89.5406 35.0581 89.5406 36.096C89.5406 38.2756 90.2107 38.6321 91.4584 38.6321C92.9949 38.6321 93.101 37.0865 93.101 35.4259C93.101 34.6046 93.0717 33.7901 93.0243 32.9666C93.1867 32.9891 93.3492 33.0117 93.5139 33.0117C93.6763 33.0117 93.8298 32.9914 93.9945 32.9666C93.9358 33.4945 93.8681 34.7716 93.8681 36.3171C93.8681 38.3929 92.8979 39.2503 91.0387 39.2503C89.3962 39.2503 88.1191 38.5779 88.1191 36.8993ZM103.963 34.4241C103.963 34.0857 103.974 33.7991 103.945 33.6795C103.57 33.6795 102.753 33.6908 102.178 33.7517C102.207 33.4908 102.207 33.2275 102.178 32.9666C103.049 32.9914 106.296 32.9914 107.11 32.9666C107.081 33.2275 107.081 33.4909 107.11 33.7517C106.537 33.7022 105.962 33.6803 105.386 33.6863C105.371 33.8149 105.384 34.0857 105.384 34.4241V36.6578C105.384 37.6574 105.405 38.3455 105.459 39.133C104.935 39.115 104.41 39.115 103.886 39.133C103.945 38.3433 103.963 37.6574 103.963 36.6601V34.4241ZM118.651 35.647C119.17 34.9701 119.678 33.842 120.1 32.9666C120.244 32.9846 120.835 32.9846 121 32.9666C120.583 33.6367 119.601 35.3424 118.987 36.4683C118.987 36.7549 118.976 36.9737 118.976 37.2648C118.976 37.8537 118.985 38.4651 119.073 39.133C118.529 39.115 117.985 39.115 117.442 39.133C117.471 38.5621 117.557 37.9597 117.557 37.4092C117.557 37.1317 117.546 36.8541 117.537 36.5789C116.875 35.3876 115.779 33.4742 115.483 32.9688C115.77 32.9846 116.912 32.9846 117.203 32.9688C117.64 33.8488 118.362 35.2386 118.631 35.647H118.651ZM23.7654 3.56042C23.63 6.911 23.63 11.146 23.63 14.9366C23.63 21.9536 23.718 23.5421 25.0379 25.2614C26.3579 26.9806 28.8127 27.9463 31.9941 27.9463C35.6786 27.9463 38.5869 26.0984 39.5864 23.4067C39.952 22.4365 40.1753 21.0692 40.1753 17.4546C40.1753 11.7169 40.1325 5.94079 39.7692 0.207578C40.4055 0.293317 43.2664 0.293317 43.9524 0.207578L43.8147 2.32172C43.5891 6.11904 43.4492 15.2028 43.359 19.659C43.2687 24.862 41.7254 27.2469 38.7245 29.0993C36.5856 30.4237 33.5396 30.9946 31.0848 30.9946C25.6291 30.9946 19.0813 29.3182 18.0841 22.4794C17.9938 21.8634 17.9938 20.539 17.9938 20.1418V8.14518C17.9938 5.89793 17.9013 2.45709 17.7637 0.207578C18.8083 0.338443 22.9915 0.338443 23.903 0.207578L23.7654 3.56042ZM50.7708 12.3238C50.7708 10.3947 50.7708 9.95472 50.6355 6.04684C50.5903 5.12176 50.5001 1.17101 50.455 0.338443C51.5899 0.555046 55.6377 0.50992 56.7726 0.338443C56.4567 6.96515 56.3213 12.4998 56.3213 19.2664C56.3213 22.3395 56.4093 25.1982 56.4567 27.6124H57.2757C58.5934 27.6124 65.1389 27.6124 67.8193 27.2153C67.6885 27.6981 67.6388 29.8912 67.8193 30.4689C65.5021 30.3786 61.5942 30.2026 59.1394 30.2026C56.2288 30.2026 53.774 30.2884 50.455 30.4689C50.455 29.7649 50.7708 19.5755 50.7708 18.4767V12.3238ZM80.5087 24.4491C80.5087 27.7884 80.6937 29.2369 80.8291 30.4689C79.5091 30.3357 76.0548 30.2884 74.419 30.4689C74.5995 27.1296 74.8725 23.7451 74.8725 20.4081L74.8273 8.15421C74.8273 6.52969 74.7822 4.98864 74.7371 3.27612H72.4673C72.0566 3.27612 67.6952 3.36638 65.3758 3.58523C65.5112 3.05952 65.6082 0.600172 65.4705 0.0722011C69.058 0.295573 74.0061 0.291061 77.5101 0.291061C81.2826 0.291061 85.3326 0.221116 89.6985 0C89.5586 0.749086 89.5135 2.87676 89.6534 3.58523C86.9707 3.32125 83.7419 3.27612 80.6057 3.27612C80.5606 4.85552 80.5109 6.52743 80.5109 8.19482L80.5087 24.4491ZM107.34 25.6404L105.441 20.9992C103.491 20.9135 96.0184 20.9135 94.2043 20.9992C92.7558 24.3701 91.305 28.0005 90.5807 30.4982C89.9896 30.4079 87.0068 30.4079 86.366 30.4982L91.6231 19.2032C96.1966 9.31619 98.8207 3.62585 99.9037 0.212091H102.859C105.041 6.0333 107.751 12.1591 109.38 15.8369C111.102 19.6455 114.091 26.2519 116.133 30.4982C113.839 30.4544 111.544 30.4544 109.249 30.4982L107.34 25.6404ZM99.8653 7.51568L95.2467 18.2872C96.8329 18.3323 98.3762 18.4113 99.9623 18.4113C100.854 18.4113 102.205 18.4068 104.127 18.2872L99.8653 7.51568Z"></path>
<path fill="#8A99A0" d="M11.2453 1.56828C4.16059 6.37191 0 12.412 0 19.79C0 36.5407 20.2276 48.9232 49.0697 48.9232C61.9982 48.9232 72.7922 45.5794 80.793 41.4594L80.2966 41.4662C70.6397 44.3722 60.8745 45.5658 50.8386 45.5658C21.8499 45.5658 1.88851 31.9604 1.85918 19.3862C1.84564 12.4097 5.09243 6.38996 11.2453 1.9902V1.56828ZM112.575 0.180664C113.561 0.180664 114.389 0.959082 114.389 1.97892C114.391 2.21786 114.345 2.45478 114.255 2.67593C114.164 2.89708 114.031 3.09807 113.862 3.26724C113.693 3.43641 113.493 3.57039 113.272 3.66142C113.051 3.75244 112.814 3.79869 112.575 3.79749C112.095 3.79749 111.635 3.60696 111.296 3.26782C110.957 2.92867 110.767 2.4687 110.767 1.98908C110.767 1.50946 110.957 1.04948 111.296 0.710336C111.635 0.371193 112.095 0.180664 112.575 0.180664ZM112.575 3.5335C113.412 3.5335 114.062 2.86564 114.062 1.97892C114.062 1.58368 113.905 1.20462 113.625 0.925138C113.346 0.645658 112.967 0.488647 112.572 0.488647C112.176 0.488647 111.797 0.645658 111.518 0.925138C111.238 1.20462 111.081 1.58368 111.081 1.97892C111.081 2.86564 111.729 3.5335 112.575 3.5335ZM111.869 0.92975H112.686C113.191 0.92975 113.426 1.1283 113.426 1.53443C113.426 1.918 113.184 2.07594 112.871 2.10979L113.475 3.04389H113.123L112.546 2.13461H112.198V3.04389H111.869V0.92975ZM112.198 1.86836H112.541C112.832 1.86836 113.098 1.85483 113.098 1.5209C113.098 1.23886 112.857 1.19599 112.634 1.19599H112.198V1.86836Z"></path>
</svg>
